<svg width="30" height="30" viewBox="0 0 30 30" fill="none" xmlns="http://www.w3.org/2000/svg">
<path fill-rule="evenodd" clip-rule="evenodd" d="M0 4.6875C0 2.09867 2.09867 0 4.6875 0H25.3125C27.9013 0 30 2.09867 30 4.6875V25.3125C30 27.9013 27.9013 30 25.3125 30H4.6875C2.09867 30 0 27.9013 0 25.3125V4.6875ZM15 7.5C19.125 7.5 22.5 10.875 22.5 15C22.5 18.75 19.7813 21.9375 16.0313 22.5V17.1562H17.8125L18.1875 15H16.125V13.5938C16.125 13.0312 16.4062 12.4688 17.3438 12.4688H18.2812V10.5938C18.2812 10.5938 17.4375 10.4063 16.5938 10.4063C14.9063 10.4063 13.7812 11.4375 13.7812 13.3125V15H11.9062V17.1562H13.7812V22.4062C10.2187 21.8437 7.5 18.75 7.5 15C7.5 10.875 10.875 7.5 15 7.5Z" fill="#045C7D"/>
</svg>
