<svg width="72" height="107" viewBox="0 0 72 107" fill="none" xmlns="http://www.w3.org/2000/svg">
<g filter="url(#filter0_dd_368_4061)">
<g clip-path="url(#clip0_368_4061)">
<path d="M197.364 5.73706H6.66431V123.837H197.364V5.73706Z" fill="white"/>
<path d="M197.264 123.737C197.264 123.737 197.264 123.037 197.264 121.637C197.264 120.237 197.264 118.137 197.264 115.437C197.264 110.037 197.264 102.037 197.164 91.737C197.164 71.237 197.064 41.737 197.064 5.63701L197.264 5.83701C145.464 5.83701 78.9643 5.83701 6.56426 5.93701L6.86426 5.63701C6.86426 47.537 6.86426 87.437 6.86426 123.737L6.66426 123.537C62.6643 123.537 110.264 123.637 143.864 123.637C160.664 123.637 174.064 123.637 183.164 123.737C187.764 123.737 191.264 123.737 193.664 123.737C191.264 123.737 187.764 123.737 183.264 123.737C174.164 123.737 160.764 123.737 143.964 123.837C110.264 123.837 62.5643 123.937 6.56426 123.937H6.36426V123.737C6.36426 87.437 6.36426 47.537 6.36426 5.73701V5.43701H6.66426C78.9643 5.43701 145.564 5.43701 197.364 5.53701H197.564V5.73701C197.564 41.937 197.464 71.437 197.464 91.937C197.464 102.137 197.464 110.137 197.364 115.537C197.364 118.237 197.364 120.337 197.364 121.737C197.264 123.037 197.264 123.737 197.264 123.737Z" fill="#222222"/>
<path d="M19.3643 38.337L14.8643 40.037L19.3643 41.737V42.837L13.6643 40.537V39.437L19.3643 37.137V38.337Z" fill="#45BBD8"/>
<path d="M24.0643 33.8369H25.1643L20.9643 45.8369H19.8643L24.0643 33.8369Z" fill="#45BBD8"/>
<path d="M31.2642 39.5369V40.6369L25.5642 42.9369V41.8369L30.0642 40.1369L25.5642 38.4369V37.3369L31.2642 39.5369Z" fill="#45BBD8"/>
<path d="M32.6643 43.7369C32.6643 43.2369 33.0643 42.8369 33.5643 42.8369C34.0643 42.8369 34.3643 43.2369 34.3643 43.7369C34.3643 44.2369 33.9643 44.6369 33.5643 44.6369C33.0643 44.6369 32.6643 44.2369 32.6643 43.7369Z" fill="#45BBD8"/>
<path d="M35.5642 43.7369C35.5642 43.2369 35.9642 42.8369 36.4642 42.8369C36.9642 42.8369 37.2642 43.2369 37.2642 43.7369C37.2642 44.2369 36.8642 44.6369 36.4642 44.6369C35.9642 44.6369 35.5642 44.2369 35.5642 43.7369Z" fill="#45BBD8"/>
<path d="M38.4644 43.7369C38.4644 43.2369 38.8644 42.8369 39.3644 42.8369C39.8644 42.8369 40.1644 43.2369 40.1644 43.7369C40.1644 44.2369 39.7644 44.6369 39.3644 44.6369C38.8644 44.6369 38.4644 44.2369 38.4644 43.7369Z" fill="#45BBD8"/>
<rect x="13.8645" y="54.3401" width="41.4634" height="2" fill="#D9D9D9"/>
<rect x="7.69873" y="5.73706" width="189" height="11.9849" fill="#045C7D"/>
<rect x="13.8645" y="69.5371" width="1.97594" height="2" fill="#D9D9D9"/>
<rect x="17.8823" y="69.5371" width="3.88618" height="2" fill="#D9D9D9"/>
<rect x="22.4272" y="69.5371" width="3.29336" height="2" fill="#D9D9D9"/>
<rect x="26.3794" y="69.5371" width="3.29336" height="2" fill="#D9D9D9"/>
<rect x="30.3313" y="69.5371" width="3.29336" height="2" fill="#D9D9D9"/>
<rect x="34.2834" y="69.5371" width="13.5028" height="2" fill="#D9D9D9"/>
<rect x="13.8645" y="75.5371" width="1.97594" height="2" fill="#D9D9D9"/>
<rect x="17.7178" y="75.5371" width="38.5982" height="2" fill="#D9D9D9"/>
<rect x="13.8645" y="81.5371" width="1.97594" height="2" fill="#D9D9D9"/>
<rect x="17.7178" y="81.5371" width="11.1974" height="2" fill="#D9D9D9"/>
<rect x="13.8645" y="63.5371" width="26.3798" height="2" fill="#D9D9D9"/>
<rect x="42.6484" y="63.5371" width="7.17955" height="2" fill="#D9D9D9"/>
<path d="M16.7643 12.037C16.7643 12.937 16.0643 13.637 15.1643 13.637C14.3643 13.537 13.6643 12.837 13.6643 12.037C13.6643 11.237 14.3643 10.437 15.1643 10.437C16.0643 10.437 16.7643 11.137 16.7643 12.037Z" fill="#FFFBFE"/>
<path d="M22.3643 12.037C22.3643 12.937 21.6643 13.637 20.7643 13.637C19.8643 13.637 19.1643 12.937 19.1643 12.037C19.1643 11.137 19.9643 10.437 20.8643 10.437C21.7643 10.437 22.3643 11.137 22.3643 12.037Z" fill="#FFFBFE"/>
<path d="M26.4643 13.637C27.3479 13.637 28.0643 12.9207 28.0643 12.037C28.0643 11.1534 27.3479 10.437 26.4643 10.437C25.5806 10.437 24.8643 11.1534 24.8643 12.037C24.8643 12.9207 25.5806 13.637 26.4643 13.637Z" fill="#FFFBFE"/>
</g>
</g>
<defs>
<filter id="filter0_dd_368_4061" x="0" y="0.437012" width="72" height="106" filterUnits="userSpaceOnUse" color-interpolation-filters="sRGB">
<feFlood flood-opacity="0" result="BackgroundImageFix"/>
<feColorMatrix in="SourceAlpha" type="matrix" values="0 0 0 0 0 0 0 0 0 0 0 0 0 0 0 0 0 0 127 0" result="hardAlpha"/>
<feMorphology radius="2" operator="dilate" in="SourceAlpha" result="effect1_dropShadow_368_4061"/>
<feOffset dy="2"/>
<feGaussianBlur stdDeviation="3"/>
<feColorMatrix type="matrix" values="0 0 0 0 0 0 0 0 0 0 0 0 0 0 0 0 0 0 0.15 0"/>
<feBlend mode="normal" in2="BackgroundImageFix" result="effect1_dropShadow_368_4061"/>
<feColorMatrix in="SourceAlpha" type="matrix" values="0 0 0 0 0 0 0 0 0 0 0 0 0 0 0 0 0 0 127 0" result="hardAlpha"/>
<feOffset dy="1"/>
<feGaussianBlur stdDeviation="1"/>
<feColorMatrix type="matrix" values="0 0 0 0 0 0 0 0 0 0 0 0 0 0 0 0 0 0 0.3 0"/>
<feBlend mode="normal" in2="effect1_dropShadow_368_4061" result="effect2_dropShadow_368_4061"/>
<feBlend mode="normal" in="SourceGraphic" in2="effect2_dropShadow_368_4061" result="shape"/>
</filter>
<clipPath id="clip0_368_4061">
<rect x="8" y="6.43701" width="56" height="90" rx="10" fill="white"/>
</clipPath>
</defs>
</svg>
