<svg width="30" height="30" viewBox="0 0 30 30" fill="none" xmlns="http://www.w3.org/2000/svg">
<path d="M2.72727 0C1.22045 0 0 1.22045 0 2.72727V27.2727C0 28.7795 1.22045 30 2.72727 30H27.2727C28.7795 30 30 28.7795 30 27.2727V2.72727C30 1.22045 28.7795 0 27.2727 0H2.72727ZM6.33878 6.81818H12.627L16.2971 12.065L20.8381 6.81818H22.8169L17.1866 13.3381L24.074 23.1818H17.7859L13.7136 17.3597L8.68519 23.1818H6.67436L12.8187 16.084L6.33878 6.81818ZM9.38033 8.43217L18.5902 21.5598H21.0298L11.8173 8.43217H9.38033Z" fill="#045C7D"/>
</svg>
